# xmcd
#
# Track frame offsets:
#	150
#	13373
#	27617
#	39778
#	54419
#	70604
#	85851
#	101558
#	114250
#	125106
#	134089
#	150909
#
# Disc length: 2174 seconds
#
# Revision: 0
# Processed by: cddbd v1.5.2PL0 Copyright (c) Steve Scherf et al.
# Submitted via: dBpowerAMP V4.0
#
DISCID=9a087c0c
DTITLE=George Strait - Troubador
DYEAR=1900
DGENRE=
TTITLE0=Troubador
TTITLE1=It Was Me
TTITLE2=Brothers of the Highway
TTITLE3=River of Love
TTITLE4=House of Cash
TTITLE5=I Saw God Today
TTITLE6=Give Me More Time
TTITLE7=When You're In Love
TTITLE8=Make Her Fall In Love With Me Song
TTITLE9=West Texas Town
TTITLE10=House With No Doors
TTITLE11=If Heartaches Were Horses
EXTD=
EXTT0=
EXTT1=
EXTT2=
EXTT3=
EXTT4=
EXTT5=
EXTT6=
EXTT7=
EXTT8=
EXTT9=
EXTT10=
EXTT11=
PLAYORDER=
